<svg xmlns="http://www.w3.org/2000/svg" width="108" height="108" viewBox="0 0 108 108" role="img" aria-label="Yarnia foreground">
  <defs>
    <linearGradient id="moon" x1="38" y1="22" x2="116" y2="140" gradientUnits="userSpaceOnUse">
      <stop offset="0" stop-color="#ffdd96"/>
      <stop offset="0.55" stop-color="#f1c673"/>
      <stop offset="1" stop-color="#c89a3f"/>
    </linearGradient>
  </defs>
  <!-- brand mark scaled into the adaptive-icon safe zone (center 66dp of 108dp) -->
  <g transform="translate(17.9,20.4) scale(0.42)">
    <!-- crescent moon = ball of yarn -->
    <path d="M104 30 A52 52 0 1 0 104 130 A40 40 0 1 1 104 30 Z" fill="url(#moon)"/>
    <!-- wound yarn threads -->
    <g fill="none" stroke="#1c1505" stroke-width="2.2" stroke-linecap="round" opacity="0.42">
      <path d="M66 44 A46 46 0 0 0 66 116"/>
      <path d="M58 52 A37 37 0 0 0 58 108"/>
      <path d="M52 62 A28 28 0 0 0 52 98"/>
      <path d="M76 40 A50 50 0 0 0 76 120"/>
    </g>
    <!-- thread tail into a star -->
    <path d="M67 116 C 58 132, 40 132, 30 142" fill="none" stroke="#f1c673" stroke-width="2.4" stroke-linecap="round"/>
    <path d="M30 142 l2.4 5.1 5.6 .7-4.1 3.9 1 5.6-5-2.7-5 2.7 1-5.6-4.1-3.9 5.6-.7z" fill="#ffdd96"/>
  </g>
</svg>
