<svg xmlns="http://www.w3.org/2000/svg" width="160" height="160" viewBox="0 0 160 160" role="img" aria-label="Yarnia">
  <title>Yarnia</title>
  <desc>Full-bleed app icon: a gold crescent moon wound like a ball of yarn on a night sky, with a loose thread trailing into a star.</desc>
  <defs>
    <linearGradient id="moon" x1="38" y1="22" x2="116" y2="140" gradientUnits="userSpaceOnUse">
      <stop offset="0" stop-color="#ffdd96"/>
      <stop offset="0.55" stop-color="#f1c673"/>
      <stop offset="1" stop-color="#c89a3f"/>
    </linearGradient>
    <radialGradient id="sky" cx="64%" cy="30%" r="85%">
      <stop offset="0" stop-color="#232a57"/>
      <stop offset="0.6" stop-color="#161836"/>
      <stop offset="1" stop-color="#0c0d1f"/>
    </radialGradient>
  </defs>

  <!-- full-bleed night sky -->
  <rect x="0" y="0" width="160" height="160" fill="url(#sky)"/>

  <!-- scattered stars -->
  <g fill="#f6efe0">
    <circle cx="34" cy="38" r="1.6" opacity="0.85"/>
    <circle cx="124" cy="30" r="1.3" opacity="0.65"/>
    <circle cx="138" cy="92" r="1.4" opacity="0.7"/>
    <circle cx="46" cy="124" r="1.2" opacity="0.6"/>
    <circle cx="22" cy="84" r="1.1" opacity="0.5"/>
    <circle cx="132" cy="132" r="1.1" opacity="0.5"/>
    <circle cx="18" cy="40" r="0.9" opacity="0.45"/>
    <circle cx="146" cy="58" r="0.9" opacity="0.5"/>
  </g>

  <!-- crescent moon = ball of yarn -->
  <path d="M104 30 A52 52 0 1 0 104 130 A40 40 0 1 1 104 30 Z" fill="url(#moon)"/>

  <!-- wound yarn threads inside the crescent belly -->
  <g fill="none" stroke="#1c1505" stroke-width="2.2" stroke-linecap="round" opacity="0.42">
    <path d="M66 44 A46 46 0 0 0 66 116"/>
    <path d="M58 52 A37 37 0 0 0 58 108"/>
    <path d="M52 62 A28 28 0 0 0 52 98"/>
    <path d="M76 40 A50 50 0 0 0 76 120"/>
  </g>

  <!-- loose thread tail trailing off into a star -->
  <path d="M67 116 C 58 132, 40 132, 30 142" fill="none" stroke="#f1c673" stroke-width="2.4" stroke-linecap="round"/>
  <path d="M30 142 l2.4 5.1 5.6 .7-4.1 3.9 1 5.6-5-2.7-5 2.7 1-5.6-4.1-3.9 5.6-.7z" fill="#ffdd96"/>
</svg>
