<svg xmlns="http://www.w3.org/2000/svg" width="160" height="160" viewBox="0 0 160 160" role="img" aria-label="Yarnia">
  <title>Yarnia</title>
  <desc>Maskable app icon: brand mark kept inside the safe zone on a full-bleed night sky.</desc>
  <defs>
    <linearGradient id="moon" x1="38" y1="22" x2="116" y2="140" gradientUnits="userSpaceOnUse">
      <stop offset="0" stop-color="#ffdd96"/>
      <stop offset="0.55" stop-color="#f1c673"/>
      <stop offset="1" stop-color="#c89a3f"/>
    </linearGradient>
    <radialGradient id="sky" cx="64%" cy="30%" r="85%">
      <stop offset="0" stop-color="#232a57"/>
      <stop offset="0.6" stop-color="#161836"/>
      <stop offset="1" stop-color="#0c0d1f"/>
    </radialGradient>
  </defs>

  <!-- full-bleed night sky -->
  <rect x="0" y="0" width="160" height="160" fill="url(#sky)"/>

  <!-- stars (decorative, may be clipped by mask) -->
  <g fill="#f6efe0">
    <circle cx="34" cy="38" r="1.6" opacity="0.8"/>
    <circle cx="124" cy="34" r="1.3" opacity="0.6"/>
    <circle cx="130" cy="96" r="1.3" opacity="0.6"/>
    <circle cx="40" cy="120" r="1.1" opacity="0.55"/>
  </g>

  <!-- brand mark scaled into the maskable safe zone (center ~80%) -->
  <g transform="translate(80,80) scale(0.78) translate(-86,-80)">
    <!-- crescent moon = ball of yarn -->
    <path d="M104 30 A52 52 0 1 0 104 130 A40 40 0 1 1 104 30 Z" fill="url(#moon)"/>
    <!-- wound yarn threads -->
    <g fill="none" stroke="#1c1505" stroke-width="2.2" stroke-linecap="round" opacity="0.42">
      <path d="M66 44 A46 46 0 0 0 66 116"/>
      <path d="M58 52 A37 37 0 0 0 58 108"/>
      <path d="M52 62 A28 28 0 0 0 52 98"/>
      <path d="M76 40 A50 50 0 0 0 76 120"/>
    </g>
    <!-- thread tail into a star -->
    <path d="M67 116 C 58 132, 40 132, 30 142" fill="none" stroke="#f1c673" stroke-width="2.4" stroke-linecap="round"/>
    <path d="M30 142 l2.4 5.1 5.6 .7-4.1 3.9 1 5.6-5-2.7-5 2.7 1-5.6-4.1-3.9 5.6-.7z" fill="#ffdd96"/>
  </g>
</svg>
